<mxfile host="app.diagrams.net" modified="2021-02-05T09:52:15.266Z" agent="5.0 (Windows)" etag="AgKHI9YMmweYRD5nQjai" version="14.2.9" type="github">
  <diagram id="LtXfjdiNlztNddyJYRsl" name="Page-1">
    <mxGraphModel dx="1422" dy="763" grid="1" gridSize="10" guides="1" tooltips="1" connect="1" arrows="1" fold="1" page="1" pageScale="1" pageWidth="827" pageHeight="1169" math="0" shadow="0">
      <root>
        <mxCell id="0" />
        <mxCell id="1" parent="0" />
        <mxCell id="pL1UWpQHdGvO4oxHJP-h-28" value="" style="group" vertex="1" connectable="0" parent="1">
          <mxGeometry x="20" y="40" width="260" height="240" as="geometry" />
        </mxCell>
        <mxCell id="pL1UWpQHdGvO4oxHJP-h-10" value="" style="rounded=0;whiteSpace=wrap;html=1;" vertex="1" parent="pL1UWpQHdGvO4oxHJP-h-28">
          <mxGeometry width="260" height="240" as="geometry" />
        </mxCell>
        <mxCell id="pL1UWpQHdGvO4oxHJP-h-12" value="&lt;div align=&quot;left&quot;&gt;View&lt;/div&gt;" style="text;html=1;strokeColor=none;fillColor=none;align=left;verticalAlign=middle;whiteSpace=wrap;rounded=0;" vertex="1" parent="pL1UWpQHdGvO4oxHJP-h-28">
          <mxGeometry x="20" width="220" height="30" as="geometry" />
        </mxCell>
        <mxCell id="pL1UWpQHdGvO4oxHJP-h-26" value="Order" style="rounded=0;whiteSpace=wrap;html=1;" vertex="1" parent="pL1UWpQHdGvO4oxHJP-h-28">
          <mxGeometry x="20" y="190" width="220" height="30" as="geometry" />
        </mxCell>
        <mxCell id="pL1UWpQHdGvO4oxHJP-h-27" value="Main" style="rounded=0;whiteSpace=wrap;html=1;" vertex="1" parent="pL1UWpQHdGvO4oxHJP-h-28">
          <mxGeometry x="20" y="40" width="220" height="30" as="geometry" />
        </mxCell>
        <mxCell id="pL1UWpQHdGvO4oxHJP-h-24" value="User" style="rounded=0;whiteSpace=wrap;html=1;" vertex="1" parent="pL1UWpQHdGvO4oxHJP-h-28">
          <mxGeometry x="20" y="90" width="220" height="30" as="geometry" />
        </mxCell>
        <mxCell id="pL1UWpQHdGvO4oxHJP-h-23" value="Product" style="rounded=0;whiteSpace=wrap;html=1;" vertex="1" parent="pL1UWpQHdGvO4oxHJP-h-28">
          <mxGeometry x="20" y="140" width="220" height="30" as="geometry" />
        </mxCell>
        <mxCell id="pL1UWpQHdGvO4oxHJP-h-48" value="" style="group" vertex="1" connectable="0" parent="1">
          <mxGeometry x="400" y="40" width="260" height="240" as="geometry" />
        </mxCell>
        <mxCell id="pL1UWpQHdGvO4oxHJP-h-49" value="" style="rounded=0;whiteSpace=wrap;html=1;" vertex="1" parent="pL1UWpQHdGvO4oxHJP-h-48">
          <mxGeometry width="260" height="240" as="geometry" />
        </mxCell>
        <mxCell id="pL1UWpQHdGvO4oxHJP-h-50" value="&lt;div align=&quot;right&quot;&gt;Controllers&lt;/div&gt;" style="text;html=1;strokeColor=none;fillColor=none;align=right;verticalAlign=middle;whiteSpace=wrap;rounded=0;" vertex="1" parent="pL1UWpQHdGvO4oxHJP-h-48">
          <mxGeometry x="20" width="220" height="30" as="geometry" />
        </mxCell>
        <mxCell id="pL1UWpQHdGvO4oxHJP-h-53" value="Order" style="rounded=0;whiteSpace=wrap;html=1;" vertex="1" parent="pL1UWpQHdGvO4oxHJP-h-48">
          <mxGeometry x="20" y="190" width="220" height="30" as="geometry" />
        </mxCell>
        <mxCell id="pL1UWpQHdGvO4oxHJP-h-54" value="Main" style="rounded=0;whiteSpace=wrap;html=1;" vertex="1" parent="pL1UWpQHdGvO4oxHJP-h-48">
          <mxGeometry x="20" y="40" width="220" height="30" as="geometry" />
        </mxCell>
        <mxCell id="pL1UWpQHdGvO4oxHJP-h-52" value="User" style="rounded=0;whiteSpace=wrap;html=1;" vertex="1" parent="pL1UWpQHdGvO4oxHJP-h-48">
          <mxGeometry x="20" y="90" width="220" height="30" as="geometry" />
        </mxCell>
        <mxCell id="pL1UWpQHdGvO4oxHJP-h-51" value="Product" style="rounded=0;whiteSpace=wrap;html=1;" vertex="1" parent="pL1UWpQHdGvO4oxHJP-h-48">
          <mxGeometry x="20" y="140" width="220" height="30" as="geometry" />
        </mxCell>
        <mxCell id="pL1UWpQHdGvO4oxHJP-h-55" value="" style="group" vertex="1" connectable="0" parent="1">
          <mxGeometry x="30" y="440" width="260" height="240" as="geometry" />
        </mxCell>
        <mxCell id="pL1UWpQHdGvO4oxHJP-h-56" value="" style="rounded=0;whiteSpace=wrap;html=1;" vertex="1" parent="pL1UWpQHdGvO4oxHJP-h-55">
          <mxGeometry width="260" height="230" as="geometry" />
        </mxCell>
        <mxCell id="pL1UWpQHdGvO4oxHJP-h-57" value="&lt;div align=&quot;left&quot;&gt;Model&lt;/div&gt;" style="text;html=1;strokeColor=none;fillColor=none;align=left;verticalAlign=middle;whiteSpace=wrap;rounded=0;" vertex="1" parent="pL1UWpQHdGvO4oxHJP-h-55">
          <mxGeometry x="20" width="220" height="30" as="geometry" />
        </mxCell>
        <mxCell id="pL1UWpQHdGvO4oxHJP-h-58" value="Product" style="rounded=0;whiteSpace=wrap;html=1;" vertex="1" parent="pL1UWpQHdGvO4oxHJP-h-55">
          <mxGeometry x="20" y="140" width="220" height="50" as="geometry" />
        </mxCell>
        <mxCell id="pL1UWpQHdGvO4oxHJP-h-59" value="User" style="rounded=0;whiteSpace=wrap;html=1;" vertex="1" parent="pL1UWpQHdGvO4oxHJP-h-55">
          <mxGeometry x="20" y="50" width="220" height="50" as="geometry" />
        </mxCell>
        <mxCell id="pL1UWpQHdGvO4oxHJP-h-62" value="" style="group" vertex="1" connectable="0" parent="1">
          <mxGeometry x="400" y="400" width="260" height="440" as="geometry" />
        </mxCell>
        <mxCell id="pL1UWpQHdGvO4oxHJP-h-63" value="" style="rounded=0;whiteSpace=wrap;html=1;" vertex="1" parent="pL1UWpQHdGvO4oxHJP-h-62">
          <mxGeometry width="260" height="310" as="geometry" />
        </mxCell>
        <mxCell id="pL1UWpQHdGvO4oxHJP-h-64" value="&lt;div align=&quot;right&quot;&gt;Services&lt;/div&gt;" style="text;html=1;strokeColor=none;fillColor=none;align=right;verticalAlign=middle;whiteSpace=wrap;rounded=0;" vertex="1" parent="pL1UWpQHdGvO4oxHJP-h-62">
          <mxGeometry x="20" width="220" height="30" as="geometry" />
        </mxCell>
        <mxCell id="pL1UWpQHdGvO4oxHJP-h-65" value="Product" style="rounded=0;whiteSpace=wrap;html=1;" vertex="1" parent="pL1UWpQHdGvO4oxHJP-h-62">
          <mxGeometry x="20" y="70" width="220" height="30" as="geometry" />
        </mxCell>
        <mxCell id="pL1UWpQHdGvO4oxHJP-h-66" value="Discount" style="rounded=0;whiteSpace=wrap;html=1;" vertex="1" parent="pL1UWpQHdGvO4oxHJP-h-62">
          <mxGeometry x="160" y="190" width="80" height="30" as="geometry" />
        </mxCell>
        <mxCell id="pL1UWpQHdGvO4oxHJP-h-89" style="edgeStyle=orthogonalEdgeStyle;rounded=0;orthogonalLoop=1;jettySize=auto;html=1;" edge="1" parent="pL1UWpQHdGvO4oxHJP-h-62" source="pL1UWpQHdGvO4oxHJP-h-67" target="pL1UWpQHdGvO4oxHJP-h-70">
          <mxGeometry relative="1" as="geometry" />
        </mxCell>
        <mxCell id="pL1UWpQHdGvO4oxHJP-h-90" style="edgeStyle=orthogonalEdgeStyle;rounded=0;orthogonalLoop=1;jettySize=auto;html=1;entryX=0.5;entryY=0;entryDx=0;entryDy=0;" edge="1" parent="pL1UWpQHdGvO4oxHJP-h-62" source="pL1UWpQHdGvO4oxHJP-h-67" target="pL1UWpQHdGvO4oxHJP-h-66">
          <mxGeometry relative="1" as="geometry" />
        </mxCell>
        <mxCell id="pL1UWpQHdGvO4oxHJP-h-91" style="edgeStyle=orthogonalEdgeStyle;rounded=0;orthogonalLoop=1;jettySize=auto;html=1;entryX=0.5;entryY=0;entryDx=0;entryDy=0;" edge="1" parent="pL1UWpQHdGvO4oxHJP-h-62" source="pL1UWpQHdGvO4oxHJP-h-67" target="pL1UWpQHdGvO4oxHJP-h-68">
          <mxGeometry relative="1" as="geometry" />
        </mxCell>
        <mxCell id="pL1UWpQHdGvO4oxHJP-h-67" value="Basket" style="rounded=0;whiteSpace=wrap;html=1;" vertex="1" parent="pL1UWpQHdGvO4oxHJP-h-62">
          <mxGeometry x="20" y="110" width="220" height="30" as="geometry" />
        </mxCell>
        <mxCell id="pL1UWpQHdGvO4oxHJP-h-68" value="Communication" style="rounded=0;whiteSpace=wrap;html=1;" vertex="1" parent="pL1UWpQHdGvO4oxHJP-h-62">
          <mxGeometry x="75" y="250" width="110" height="30" as="geometry" />
        </mxCell>
        <mxCell id="pL1UWpQHdGvO4oxHJP-h-69" value="Security" style="rounded=0;whiteSpace=wrap;html=1;" vertex="1" parent="pL1UWpQHdGvO4oxHJP-h-62">
          <mxGeometry x="20" y="30" width="220" height="30" as="geometry" />
        </mxCell>
        <mxCell id="pL1UWpQHdGvO4oxHJP-h-70" value="Billing" style="rounded=0;whiteSpace=wrap;html=1;" vertex="1" parent="pL1UWpQHdGvO4oxHJP-h-62">
          <mxGeometry x="20" y="190" width="80" height="30" as="geometry" />
        </mxCell>
        <mxCell id="pL1UWpQHdGvO4oxHJP-h-71" style="edgeStyle=orthogonalEdgeStyle;rounded=0;orthogonalLoop=1;jettySize=auto;html=1;entryX=0.5;entryY=0;entryDx=0;entryDy=0;" edge="1" parent="1" source="pL1UWpQHdGvO4oxHJP-h-54" target="pL1UWpQHdGvO4oxHJP-h-27">
          <mxGeometry relative="1" as="geometry">
            <Array as="points">
              <mxPoint x="360" y="95" />
              <mxPoint x="360" y="20" />
              <mxPoint x="150" y="20" />
            </Array>
          </mxGeometry>
        </mxCell>
        <mxCell id="pL1UWpQHdGvO4oxHJP-h-75" style="edgeStyle=orthogonalEdgeStyle;rounded=0;orthogonalLoop=1;jettySize=auto;html=1;entryX=0;entryY=0.5;entryDx=0;entryDy=0;exitX=0.5;exitY=1;exitDx=0;exitDy=0;" edge="1" parent="1" source="pL1UWpQHdGvO4oxHJP-h-53" target="pL1UWpQHdGvO4oxHJP-h-69">
          <mxGeometry relative="1" as="geometry">
            <Array as="points">
              <mxPoint x="530" y="320" />
              <mxPoint x="360" y="320" />
              <mxPoint x="360" y="445" />
            </Array>
          </mxGeometry>
        </mxCell>
        <mxCell id="pL1UWpQHdGvO4oxHJP-h-76" style="edgeStyle=orthogonalEdgeStyle;rounded=0;orthogonalLoop=1;jettySize=auto;html=1;entryX=1;entryY=0.5;entryDx=0;entryDy=0;exitX=0;exitY=0.5;exitDx=0;exitDy=0;" edge="1" parent="1" source="pL1UWpQHdGvO4oxHJP-h-53" target="pL1UWpQHdGvO4oxHJP-h-26">
          <mxGeometry relative="1" as="geometry">
            <Array as="points">
              <mxPoint x="320" y="245" />
              <mxPoint x="320" y="245" />
            </Array>
          </mxGeometry>
        </mxCell>
        <mxCell id="pL1UWpQHdGvO4oxHJP-h-77" style="edgeStyle=orthogonalEdgeStyle;rounded=0;orthogonalLoop=1;jettySize=auto;html=1;exitX=1;exitY=0.5;exitDx=0;exitDy=0;entryX=1;entryY=0.5;entryDx=0;entryDy=0;" edge="1" parent="1" source="pL1UWpQHdGvO4oxHJP-h-51" target="pL1UWpQHdGvO4oxHJP-h-65">
          <mxGeometry relative="1" as="geometry">
            <mxPoint x="910" y="505" as="targetPoint" />
            <Array as="points">
              <mxPoint x="740" y="195" />
              <mxPoint x="740" y="485" />
            </Array>
          </mxGeometry>
        </mxCell>
        <mxCell id="pL1UWpQHdGvO4oxHJP-h-78" style="edgeStyle=orthogonalEdgeStyle;rounded=0;orthogonalLoop=1;jettySize=auto;html=1;entryX=1;entryY=0.5;entryDx=0;entryDy=0;exitX=1;exitY=0.5;exitDx=0;exitDy=0;" edge="1" parent="1" source="pL1UWpQHdGvO4oxHJP-h-51" target="pL1UWpQHdGvO4oxHJP-h-67">
          <mxGeometry relative="1" as="geometry">
            <mxPoint x="690" y="550" as="targetPoint" />
            <Array as="points">
              <mxPoint x="740" y="195" />
              <mxPoint x="740" y="525" />
            </Array>
          </mxGeometry>
        </mxCell>
        <mxCell id="pL1UWpQHdGvO4oxHJP-h-80" style="edgeStyle=orthogonalEdgeStyle;rounded=0;orthogonalLoop=1;jettySize=auto;html=1;exitX=1;exitY=0.5;exitDx=0;exitDy=0;entryX=0.5;entryY=1;entryDx=0;entryDy=0;" edge="1" parent="1" source="pL1UWpQHdGvO4oxHJP-h-52" target="pL1UWpQHdGvO4oxHJP-h-64">
          <mxGeometry relative="1" as="geometry">
            <mxPoint x="530" y="390" as="targetPoint" />
            <Array as="points">
              <mxPoint x="700" y="145" />
              <mxPoint x="700" y="360" />
              <mxPoint x="530" y="360" />
            </Array>
          </mxGeometry>
        </mxCell>
        <mxCell id="pL1UWpQHdGvO4oxHJP-h-83" style="edgeStyle=orthogonalEdgeStyle;rounded=0;orthogonalLoop=1;jettySize=auto;html=1;entryX=1;entryY=0.5;entryDx=0;entryDy=0;" edge="1" parent="1" source="pL1UWpQHdGvO4oxHJP-h-52" target="pL1UWpQHdGvO4oxHJP-h-24">
          <mxGeometry relative="1" as="geometry">
            <Array as="points">
              <mxPoint x="320" y="145" />
              <mxPoint x="320" y="145" />
            </Array>
          </mxGeometry>
        </mxCell>
        <mxCell id="pL1UWpQHdGvO4oxHJP-h-84" style="edgeStyle=orthogonalEdgeStyle;rounded=0;orthogonalLoop=1;jettySize=auto;html=1;entryX=1;entryY=0.5;entryDx=0;entryDy=0;" edge="1" parent="1" source="pL1UWpQHdGvO4oxHJP-h-51" target="pL1UWpQHdGvO4oxHJP-h-23">
          <mxGeometry relative="1" as="geometry">
            <Array as="points">
              <mxPoint x="310" y="195" />
              <mxPoint x="310" y="195" />
            </Array>
          </mxGeometry>
        </mxCell>
        <mxCell id="pL1UWpQHdGvO4oxHJP-h-85" style="edgeStyle=orthogonalEdgeStyle;rounded=0;orthogonalLoop=1;jettySize=auto;html=1;entryX=1;entryY=0.5;entryDx=0;entryDy=0;" edge="1" parent="1" source="pL1UWpQHdGvO4oxHJP-h-52" target="pL1UWpQHdGvO4oxHJP-h-27">
          <mxGeometry relative="1" as="geometry">
            <Array as="points">
              <mxPoint x="320" y="145" />
              <mxPoint x="320" y="95" />
            </Array>
          </mxGeometry>
        </mxCell>
        <mxCell id="pL1UWpQHdGvO4oxHJP-h-86" style="edgeStyle=orthogonalEdgeStyle;rounded=0;orthogonalLoop=1;jettySize=auto;html=1;entryX=0;entryY=0.5;entryDx=0;entryDy=0;" edge="1" parent="1" source="pL1UWpQHdGvO4oxHJP-h-53" target="pL1UWpQHdGvO4oxHJP-h-67">
          <mxGeometry relative="1" as="geometry">
            <Array as="points">
              <mxPoint x="530" y="320" />
              <mxPoint x="360" y="320" />
              <mxPoint x="360" y="525" />
            </Array>
          </mxGeometry>
        </mxCell>
        <mxCell id="pL1UWpQHdGvO4oxHJP-h-93" style="edgeStyle=orthogonalEdgeStyle;rounded=0;orthogonalLoop=1;jettySize=auto;html=1;entryX=0.25;entryY=1;entryDx=0;entryDy=0;dashed=1;" edge="1" parent="1" source="pL1UWpQHdGvO4oxHJP-h-59" target="pL1UWpQHdGvO4oxHJP-h-67">
          <mxGeometry relative="1" as="geometry">
            <Array as="points">
              <mxPoint x="320" y="515" />
              <mxPoint x="320" y="560" />
              <mxPoint x="475" y="560" />
            </Array>
          </mxGeometry>
        </mxCell>
        <mxCell id="pL1UWpQHdGvO4oxHJP-h-94" style="edgeStyle=orthogonalEdgeStyle;rounded=0;orthogonalLoop=1;jettySize=auto;html=1;entryX=0.25;entryY=0;entryDx=0;entryDy=0;dashed=1;" edge="1" parent="1" source="pL1UWpQHdGvO4oxHJP-h-59" target="pL1UWpQHdGvO4oxHJP-h-69">
          <mxGeometry relative="1" as="geometry">
            <Array as="points">
              <mxPoint x="320" y="515" />
              <mxPoint x="320" y="410" />
              <mxPoint x="475" y="410" />
            </Array>
          </mxGeometry>
        </mxCell>
        <mxCell id="pL1UWpQHdGvO4oxHJP-h-95" style="edgeStyle=orthogonalEdgeStyle;rounded=0;orthogonalLoop=1;jettySize=auto;html=1;entryX=0.75;entryY=1;entryDx=0;entryDy=0;dashed=1;" edge="1" parent="1" source="pL1UWpQHdGvO4oxHJP-h-58" target="pL1UWpQHdGvO4oxHJP-h-67">
          <mxGeometry relative="1" as="geometry">
            <Array as="points">
              <mxPoint x="340" y="605" />
              <mxPoint x="340" y="740" />
              <mxPoint x="700" y="740" />
              <mxPoint x="700" y="560" />
              <mxPoint x="585" y="560" />
            </Array>
          </mxGeometry>
        </mxCell>
        <mxCell id="pL1UWpQHdGvO4oxHJP-h-96" style="edgeStyle=orthogonalEdgeStyle;rounded=0;orthogonalLoop=1;jettySize=auto;html=1;entryX=0;entryY=0.5;entryDx=0;entryDy=0;dashed=1;" edge="1" parent="1" source="pL1UWpQHdGvO4oxHJP-h-58" target="pL1UWpQHdGvO4oxHJP-h-65">
          <mxGeometry relative="1" as="geometry">
            <Array as="points">
              <mxPoint x="340" y="605" />
              <mxPoint x="340" y="485" />
            </Array>
          </mxGeometry>
        </mxCell>
      </root>
    </mxGraphModel>
  </diagram>
</mxfile>
